<?xml version="1.0" standalone="no"?><!DOCTYPE svg PUBLIC "-//W3C//DTD SVG 1.1//EN" "http://www.w3.org/Graphics/SVG/1.1/DTD/svg11.dtd" ><svg xmlns="http://www.w3.org/2000/svg"><metadata></metadata><defs><font id="fonteditor" horiz-adv-x="1000"><font-face font-family=" [W]åb?QxÑÿ^UFu(ÿ	^8ÄOS" font-weight="400" font-stretch="normal" units-per-em="1000" panose-1="0 0 0 0 0 0 0 0 0 0" ascent="1000" descent="-240" x-height="0" bbox="9 -114 990 872" underline-thickness="50" underline-position="-75" unicode-range="U+0030-9884" /><missing-glyph horiz-adv-x="1000" d="M950 -70 L50 -70 L50 830 L950 830 L950 -70 ZM90 760 L90 0 L470 380 L90 760 ZM120 -30 L880 -30 L500 350 L120 -30 ZM500 410 L880 790 L120 790 L500 410 ZM910 0 L910 760 L530 380 L910 0 Z" /><glyph glyph-name="zero" unicode="0" d="M352 -96 Q291 -95 244.5 -74 Q198 -53 164.5 -18 Q131 17 109 62.5 Q87 108 74 158.5 Q61 209 55.5 262 Q50 315 50 365 Q50 444 63.5 525.5 Q77 607 111.5 674 Q146 741 204 783.5 Q262 826 352 826 Q414 826 460 805.5 Q506 785 540 749.5 Q574 714 596 668 Q618 622 631 570.5 Q644 519 649.5 466 Q655 413 655 365 Q655 312 649.5 257.5 Q644 203 630.5 152 Q617 101 594.5 55.5 Q572 10 538 -23.5 Q504 -57 458 -76.5 Q412 -96 352 -96 ZM352 -9 Q397 -8 429 10.5 Q461 29 482.5 59 Q504 89 517 128 Q530 167 537 208 Q544 249 546 290 Q548 331 548 365 Q548 400 545.5 441.5 Q543 483 536 524.5 Q529 566 516 604.5 Q503 643 481.5 673 Q460 703 428 721 Q396 739 352 739 Q308 739 276.5 720.5 Q245 702 223.5 671.5 Q202 641 188.5 601.5 Q175 562 168 520.5 Q161 479 159 438.5 Q157 398 157 365 Q157 329 160 287.5 Q163 246 170 204.5 Q177 163 190.5 124.5 Q204 86 225.5 56.5 Q247 27 278 9 Q309 -9 352 -9 Z" /><glyph glyph-name="one" unicode="1" d="M64 -3 L154 -3 L154 720 Q154 736 137 736 L67 736 L94 817 L205 817 Q259 817 259 771 L259 -3 L357 -3 L357 -85 L37 -85 L64 -3 Z" /><glyph glyph-name="two" unicode="2" d="M630 532 Q627 455 598.5 399.5 Q570 344 527.5 302 Q485 260 433 226.5 Q381 193 331.5 159.5 Q282 126 239.5 87.5 Q197 49 173 -3 L599 -3 L599 -85 L114 -85 Q97 -85 84.5 -78 Q72 -71 64.5 -59 Q57 -47 55.5 -32 Q54 -17 60 -1 Q84 53 116 95 Q148 137 187 172 Q226 207 270.5 238 Q315 269 363 300 Q411 332 449.5 366 Q488 400 505 437 Q531 482 533 533.5 Q535 585 514 629 Q493 673 450 703 Q407 733 344 733 Q290 733 253 711.5 Q216 690 193 654.5 Q170 619 159.5 575 Q149 531 148 488 L57 513 Q61 583 83 640.5 Q105 698 142.5 739 Q180 780 234 803 Q288 826 357 826 Q421 826 472.5 802.5 Q524 779 560 738.5 Q596 698 614.5 644.5 Q633 591 630 532 Z" /><glyph glyph-name="three" unicode="3" d="M526 585 Q526 624 511 652 Q496 680 471 698 Q446 716 413 724.5 Q380 733 343 733 Q251 732 209.5 680 Q168 628 161 539 L72 562 Q81 687 149.5 756.5 Q218 826 346 826 Q401 826 451 812.5 Q501 799 539.5 770.5 Q578 742 601 698.5 Q624 655 624 595 Q624 541 603 500.5 Q582 460 543 428 Q535 422 525.5 416 Q516 410 508 405 Q525 398 540 390 Q555 382 568 372 Q610 339 632.5 294.5 Q655 250 655 193 Q655 126 631.5 73.5 Q608 21 566.5 -15.5 Q525 -52 469 -71 Q413 -90 349 -90 Q217 -90 141.5 -30 Q66 30 48 164 L144 194 Q150 143 164 106.5 Q178 70 202.5 46.5 Q227 23 264 11.5 Q301 0 352 0 Q395 0 432 11.5 Q469 23 496.5 46 Q524 69 539.5 102.5 Q555 136 555 180 Q555 220 540 254 Q525 288 497 312 Q474 332 443.5 344 Q413 356 378 356 L282 356 L303 436 L379 436 Q407 436 430.5 447.5 Q454 459 473 474 Q496 494 511 521 Q526 548 526 585 Z" /><glyph glyph-name="four" unicode="4" d="M550 216 L671 216 L671 135 L550 135 L550 -85 L447 -85 L447 135 L78 135 Q67 135 58.5 140 Q50 145 45.5 153.5 Q41 162 41 171.5 Q41 181 46 190 L408 786 Q428 817 460 817 L500 817 Q523 817 536.5 804.5 Q550 792 550 768 L550 216 ZM158 216 L447 216 L447 681 L158 216 Z" /><glyph glyph-name="five" unicode="5" d="M199 453 L339 453 Q392 453 441.5 438.5 Q491 424 529 393.5 Q567 363 590 317 Q613 271 613 208 Q613 128 590 71.5 Q567 15 528 -21 Q489 -57 436.5 -73.5 Q384 -90 325 -90 Q203 -90 133.5 -31.5 Q64 27 49 163 L137 193 Q142 142 154.5 105.5 Q167 69 189.5 45 Q212 21 246 10 Q280 -1 327 -1 Q367 -1 400.5 12 Q434 25 458 50 Q482 75 495.5 111.5 Q509 148 509 195 Q509 286 466 329 Q423 372 347 372 L144 372 Q124 372 109.5 386 Q95 400 95 420 L95 768 Q95 788 110 802.5 Q125 817 145 817 L588 817 L588 736 L213 736 Q199 736 199 723 L199 453 Z" /><glyph glyph-name="six" unicode="6" d="M374 817 Q480 817 547.5 765 Q615 713 629 610 L541 587 Q530 659 487 693.5 Q444 728 374 728 Q306 728 263 694.5 Q220 661 195.5 609.5 Q171 558 161.5 496 Q152 434 151 377 Q194 437 249.5 465.5 Q305 494 373 494 Q437 494 488.5 472.5 Q540 451 576 413 Q612 375 631 322.5 Q650 270 650 207 Q650 139 630.5 84.5 Q611 30 573.5 -8 Q536 -46 480 -67 Q424 -88 352 -88 Q269 -88 212 -58.5 Q155 -29 119.5 26.5 Q84 82 68 161.5 Q52 241 52 341 Q52 395 57.5 451.5 Q63 508 77 561 Q91 614 114.5 660.5 Q138 707 174 742 Q210 777 259 797 Q308 817 374 817 ZM163 205 Q164 160 177.5 121.5 Q191 83 215.5 55.5 Q240 28 275.5 12 Q311 -4 358 -4 Q403 -4 438.5 12 Q474 28 498.5 56.5 Q523 85 536.5 123 Q550 161 550 205 Q550 247 537 283.5 Q524 320 499.5 347 Q475 374 439.5 390 Q404 406 359 406 Q316 406 279.5 390 Q243 374 217 346.5 Q191 319 176.5 282.5 Q162 246 163 205 Z" /><glyph glyph-name="seven" unicode="7" d="M71 809 L584 809 Q605 809 618.5 795.5 Q632 782 631 761 L629 726 Q514 533 431.5 332.5 Q349 132 304 -85 L195 -85 Q242 122 321.5 324 Q401 526 522 729 L44 729 L71 809 Z" /><glyph glyph-name="eight" unicode="8" d="M483 405 Q551 375 593 318 Q635 261 635 184 Q635 119 613.5 68 Q592 17 553 -18.5 Q514 -54 460 -73 Q406 -92 342 -92 Q279 -92 225.5 -73 Q172 -54 133 -18.5 Q94 17 72 68 Q50 119 50 184 Q50 261 92 319 Q134 377 202 404 Q143 429 111.5 477 Q80 525 80 586 Q80 642 100 686.5 Q120 731 155 761.5 Q190 792 238.5 808 Q287 824 343 824 Q399 824 447 807.5 Q495 791 530 760.5 Q565 730 585 686 Q605 642 605 586 Q605 526 572.5 477.5 Q540 429 483 405 ZM342 361 Q300 362 264.5 348.5 Q229 335 202.5 310.5 Q176 286 161.5 252 Q147 218 147 179 Q147 136 161.5 101.5 Q176 67 202.5 43 Q229 19 264.5 6.5 Q300 -6 342 -6 Q384 -6 420 6.5 Q456 19 482.5 43 Q509 67 523.5 101.5 Q538 136 538 179 Q538 219 523 252.5 Q508 286 482 310 Q456 334 420 347.5 Q384 361 342 361 ZM343 443 Q379 442 409 453 Q439 464 460.5 483.5 Q482 503 494.5 530 Q507 557 507 589 Q507 622 495 649 Q483 676 461 695.5 Q439 715 409 726 Q379 737 343 737 Q307 737 277 727 Q247 717 224.5 697.5 Q202 678 189.5 650.5 Q177 623 177 588 Q177 555 189.5 528 Q202 501 224 482.5 Q246 464 276.5 453.5 Q307 443 343 443 Z" /><glyph glyph-name="nine" unicode="9" d="M326 -88 Q220 -88 152.5 -35.5 Q85 17 71 119 L160 142 Q170 70 213.5 35 Q257 0 326 1 Q394 1 437.5 35 Q481 69 506 120.5 Q531 172 540.5 235 Q550 298 551 357 Q513 299 454 267.5 Q395 236 326 236 Q260 236 209 257.5 Q158 279 122.5 317.5 Q87 356 68.5 409.5 Q50 463 50 527 Q50 594 70 648 Q90 702 128.5 739.5 Q167 777 223 797 Q279 817 350 817 Q432 817 489 787.5 Q546 758 582 703 Q618 648 634 568 Q650 488 650 388 Q650 334 644.5 277.5 Q639 221 624.5 168 Q610 115 586.5 68.5 Q563 22 527 -13 Q491 -48 441.5 -68 Q392 -88 326 -88 ZM538 532 Q536 572 523 608.5 Q510 645 486 672.5 Q462 700 427 716.5 Q392 733 344 733 Q299 733 263 717.5 Q227 702 202 674.5 Q177 647 163.5 609.5 Q150 572 150 528 Q150 482 164 444.5 Q178 407 203 380.5 Q228 354 263 339.5 Q298 325 340 325 Q383 325 420.5 341.5 Q458 358 485 386 Q512 414 526.5 451.5 Q541 489 538 532 Z" /><glyph glyph-name="cid994" unicode="&#x2f69;&#x767d;" d="M511 847 L455 729 L850 729 Q871 729 885.5 714.5 Q900 700 900 679 L900 -107 L789 -107 L789 -53 L210 -53 L210 -107 L99 -107 L99 679 Q99 700 113.5 714.5 Q128 729 149 729 L337 729 L395 866 L511 847 ZM789 618 Q789 626 783.5 632 Q778 638 770 638 L229 638 Q221 638 215.5 632 Q210 626 210 618 L210 380 L789 380 L789 618 ZM210 38 L789 38 L789 289 L210 289 L210 38 Z" /><glyph glyph-name="cid1200" unicode="&#x67e5;" d="M209 45 Q186 45 170 61.5 Q154 78 154 101 L154 392 Q154 415 170 430.5 Q186 446 209 446 L790 446 Q813 446 829 430 Q845 414 845 391 L845 100 Q845 77 829 61 Q813 45 790 45 L209 45 ZM944 429 Q846 463 744 518 Q642 573 554 640 L554 479 L443 479 L443 635 Q365 575 266.5 520 Q168 465 57 427 L15 526 Q99 552 183.5 595.5 Q268 639 346 694 L54 694 L83 781 L443 781 L443 868 L554 868 L554 781 L945 781 L945 694 L648 694 Q727 640 814.5 597 Q902 554 985 528 L944 429 ZM974 -4 L974 -91 L24 -91 L53 -4 L974 -4 ZM734 343 Q734 349 729.5 353.5 Q725 358 719 358 L280 358 Q274 358 269.5 353.5 Q265 349 265 343 L265 287 L734 287 L734 343 ZM719 132 Q725 132 729.5 136.5 Q734 141 734 147 L734 203 L265 203 L265 147 Q265 141 269.5 136.5 Q274 132 280 132 L719 132 Z" /><glyph glyph-name="cid1259" unicode="&#x79f0;" d="M404 238 L316 189 L268 322 L268 -105 L157 -105 L157 321 Q141 248 119.5 177.5 Q98 107 64 32 L13 148 Q28 183 42 224 Q56 265 69 309.5 Q82 354 94 400 Q106 446 115 491 L12 491 L30 582 L157 582 L157 750 Q128 748 100.5 747.5 Q73 747 46 746 L36 835 Q115 837 199 842.5 Q283 848 362 857 L372 768 Q346 765 320 762.5 Q294 760 268 758 L268 582 L384 582 L384 491 L268 491 L268 404 L326 433 L404 238 ZM638 847 Q633 821 627 794 Q621 767 613 741 L925 741 Q960 741 973 720.5 Q986 700 978 677 L910 452 L808 469 L864 650 L584 650 Q564 593 540.5 543 Q517 493 494 455 L400 505 Q421 539 441 582.5 Q461 626 477.5 673 Q494 720 507 769.5 Q520 819 529 867 L638 847 ZM746 548 L746 -19 Q746 -113 652 -105 L501 -93 L501 -4 L599 -13 Q620 -15 627.5 -9.5 Q635 -4 635 16 L635 548 L746 548 ZM576 389 Q558 297 535 211.5 Q512 126 481 40 L376 71 Q409 160 432 242 Q455 324 473 415 L576 389 ZM881 26 Q865 117 843 205.5 Q821 294 794 384 L895 408 Q921 318 943.5 230.5 Q966 143 980 50 L881 26 Z" /><glyph glyph-name="cid1274" unicode="&#x75f4;" d="M975 -87 L868 -87 L868 -36 L774 -36 L774 -87 L667 -87 L667 552 Q667 573 681.5 588.5 Q696 604 716 604 L925 604 Q945 604 960 589 Q975 574 975 554 L975 -87 ZM648 865 L648 786 L973 786 L973 695 L305 695 Q295 695 288 688 Q281 681 281 670 L281 374 Q281 232 247.5 113 Q214 -6 134 -102 L42 -37 Q90 21 119 92.5 Q148 164 161 251 L53 188 L12 285 L170 376 L170 737 Q170 758 184.5 772 Q199 786 220 786 L537 786 L537 845 L648 865 ZM634 560 L634 473 L552 473 L552 356 Q552 344 551.5 332 Q551 320 550 309 L637 309 L637 222 L538 222 L532 197 L649 11 L569 -58 L486 77 Q460 29 424 -17 Q388 -63 338 -106 L259 -29 Q323 23 364 86.5 Q405 150 425 222 L302 222 L327 309 L440 309 Q443 333 443 357 L443 473 L417 473 Q409 446 399.5 420.5 Q390 395 379 373 L292 414 Q304 442 315 473 Q326 504 335 536 Q344 568 351.5 599.5 Q359 631 364 660 L460 640 Q456 622 451.5 601.5 Q447 581 442 560 L634 560 ZM868 502 Q868 507 864.5 510 Q861 513 857 513 L785 513 Q774 513 774 502 L774 55 L868 55 L868 502 ZM114 687 L148 447 L59 429 L26 670 L114 687 Z" /><glyph glyph-name="cid1335" unicode="&#x521b;" d="M229 22 Q229 -3 254 -3 L448 -3 Q466 -3 474 3.5 Q482 10 485 26 L504 128 L607 98 L579 -28 Q572 -57 553 -75.5 Q534 -94 502 -94 L198 -94 Q165 -94 141.5 -70.5 Q118 -47 118 -14 L118 464 Q118 484 132.5 498.5 Q147 513 168 513 L483 513 Q504 513 518.5 498.5 Q533 484 533 464 L533 245 Q533 214 513.5 191.5 Q494 169 455 171 L326 178 L325 259 L400 254 Q410 252 416 256 Q422 260 422 273 L422 411 Q422 417 418 421.5 Q414 426 407 426 L244 426 Q237 426 233 421.5 Q229 417 229 411 L229 22 ZM963 866 L963 -24 Q963 -60 939.5 -81 Q916 -102 872 -100 L673 -88 L673 10 L828 -3 Q852 -6 852 18 L852 866 L963 866 ZM408 842 Q403 831 397.5 821 Q392 811 386 800 L606 622 L532 535 L330 716 Q275 643 204.5 577 Q134 511 51 453 L14 559 Q103 619 174 698.5 Q245 778 294 865 L408 842 ZM766 762 L766 115 L659 115 L659 762 L766 762 Z" /><glyph glyph-name="cid1384" unicode="&#x6751;" d="M307 868 L307 669 L425 669 L425 578 L307 578 L307 488 L372 518 L474 289 L382 241 L307 424 L307 -106 L198 -106 L198 446 Q189 397 177.5 345.5 Q166 294 153 244.5 Q140 195 125.5 149.5 Q111 104 96 65 L11 128 Q30 175 47.5 230.5 Q65 286 80.5 345 Q96 404 108 463.5 Q120 523 128 578 L21 578 L44 669 L198 669 L198 868 L307 868 ZM884 867 L884 667 L987 667 L987 576 L884 576 L884 -11 Q884 -57 862.5 -83 Q841 -109 787 -104 L581 -88 L579 0 L739 -13 Q761 -15 767 -9.5 Q773 -4 773 15 L773 576 L452 576 L474 667 L773 667 L773 867 L884 867 ZM598 157 L477 450 L573 490 L693 201 L598 157 Z" /><glyph glyph-name="cid1426" unicode="&#x5f53;" d="M562 864 L562 509 L854 509 Q881 509 900 490 Q919 471 919 444 L919 -9 Q919 -37 900 -56 Q881 -75 854 -75 L65 -75 L92 17 L786 17 Q795 17 800.5 23.5 Q806 30 806 39 L806 172 L127 172 L153 262 L806 262 L806 395 Q806 403 800 411 Q792 417 784 417 L89 417 L116 509 L452 509 L452 864 L562 864 ZM919 756 L764 556 L676 626 L836 822 L919 756 ZM176 822 L336 626 L248 556 L93 756 L176 822 Z" /><glyph glyph-name="cid1445" unicode="&#x7684;" d="M143 740 Q152 771 160 802 Q168 833 176 865 L282 846 Q276 819 268.5 792.5 Q261 766 253 740 L377 740 Q398 740 413.5 724.5 Q429 709 429 688 L429 -96 L318 -96 L318 -49 L139 -49 L139 -96 L29 -96 L29 688 Q29 709 44 724.5 Q59 740 81 740 L143 740 ZM622 653 Q602 596 579 542.5 Q556 489 533 451 L440 504 Q460 539 479 582.5 Q498 626 514.5 673 Q531 720 544 768.5 Q557 817 566 864 L674 847 Q670 825 664 798.5 Q658 772 650 743 L917 743 Q937 743 952 728.5 Q967 714 967 693 L967 -15 Q967 -55 945.5 -81.5 Q924 -108 871 -105 L626 -92 L626 1 L820 -13 Q841 -15 848.5 -8 Q856 -1 856 18 L856 628 Q856 638 849 645.5 Q842 653 831 653 L622 653 ZM139 388 L318 388 L318 636 Q318 641 314.5 644.5 Q311 648 306 648 L152 648 Q147 648 143 644.5 Q139 641 139 636 L139 388 ZM139 42 L318 42 L318 297 L139 297 L139 42 ZM629 458 L784 216 L691 154 L541 399 L629 458 Z" /><glyph glyph-name="cid1628" unicode="&#x623f;" d="M588 868 L588 796 L902 796 Q923 796 937.5 781.5 Q952 767 952 746 L952 557 Q952 536 937.5 521.5 Q923 507 902 507 L224 507 L224 400 L529 400 L529 466 L640 482 L640 400 L978 400 L978 309 L496 309 Q494 289 492.5 269 Q491 249 488 230 L861 230 Q881 230 896 215.5 Q911 201 911 180 L911 0 Q911 -46 889.5 -73 Q868 -100 814 -97 L600 -85 L599 1 L764 -8 Q786 -10 793 -1.5 Q800 7 800 27 L800 117 Q800 139 777 139 L466 139 Q442 65 397.5 4 Q353 -57 284 -108 L204 -25 Q293 34 335 116.5 Q377 199 384 309 L222 309 Q217 198 192.5 92.5 Q168 -13 113 -106 L14 -54 Q68 44 90.5 146 Q113 248 113 360 L113 746 Q113 767 128 781.5 Q143 796 163 796 L477 796 L477 854 L588 868 ZM224 598 L826 598 Q833 598 837 602.5 Q841 607 841 613 L841 690 Q841 696 837 700.5 Q833 705 826 705 L239 705 Q233 705 228.5 700.5 Q224 696 224 690 L224 598 Z" /><glyph glyph-name="cid1658" unicode="&#x4efd;" d="M598 366 Q594 291 579.5 225.5 Q565 160 537.5 102 Q510 44 469.5 -8.5 Q429 -61 374 -110 L293 -37 Q344 5 379 49.5 Q414 94 437 143.5 Q460 193 472 248 Q484 303 488 366 L381 366 L406 457 L810 457 Q831 457 845.5 442.5 Q860 428 860 407 L860 -17 Q860 -60 838.5 -83.5 Q817 -107 769 -102 L589 -85 L588 1 L713 -13 Q735 -15 742 -6.5 Q749 2 749 22 L749 341 Q749 352 741.5 359 Q734 366 724 366 L598 366 ZM125 -106 L125 405 Q106 375 85.5 345.5 Q65 316 42 287 L12 430 Q40 470 67 520.5 Q94 571 117.5 628 Q141 685 159.5 746.5 Q178 808 190 870 L300 845 Q286 787 270 734 Q254 681 236 631 L236 -106 L125 -106 ZM783 863 Q800 801 824.5 742 Q849 683 877 631 Q905 579 933.5 536.5 Q962 494 988 465 L911 385 Q877 423 844 472.5 Q811 522 781 580.5 Q751 639 725.5 704.5 Q700 770 681 840 L783 863 ZM557 824 Q524 693 464 584 Q404 475 334 393 L253 463 Q283 496 312.5 540 Q342 584 368 634.5 Q394 685 415.5 739.5 Q437 794 452 848 L557 824 Z" /><glyph glyph-name="cid1916" unicode="&#x53f7;" d="M135 794 Q135 815 149.5 829.5 Q164 844 185 844 L810 844 Q830 844 844.5 829.5 Q859 815 859 794 L859 572 Q859 552 844.5 537 Q830 522 810 522 L185 522 Q164 522 149.5 537 Q135 552 135 572 L135 794 ZM985 450 L985 359 L315 359 L293 264 Q291 253 293 245.5 Q295 238 308 238 L826 238 Q846 238 861 223.5 Q876 209 876 188 L876 -27 Q876 -63 855.5 -86 Q835 -109 788 -107 L485 -89 L483 -5 L730 -19 Q752 -21 758.5 -15 Q765 -9 765 10 L765 122 Q765 132 758 139.5 Q751 147 740 147 L209 147 Q183 147 169.5 167 Q156 187 162 212 L196 359 L15 359 L40 450 L985 450 ZM271 753 Q260 753 253 746 Q246 739 246 728 L246 638 Q246 627 253 620 Q260 613 271 613 L723 613 Q734 613 741 620 Q748 627 748 638 L748 728 Q748 739 741 746 Q734 753 723 753 L271 753 Z" /><glyph glyph-name="cid2117" unicode="&#x5bb6;" d="M50 13 Q102 25 163 44.5 Q224 64 285.5 90.5 Q347 117 403.5 149 Q460 181 503 217 Q498 230 493.5 242 Q489 254 484 267 Q441 240 392.5 216.5 Q344 193 294 173 Q244 153 193 137 Q142 121 93 109 L63 200 Q156 220 254.5 260 Q353 300 436 352 Q428 364 418.5 374.5 Q409 385 399 396 Q328 360 255 333 Q182 306 114 289 L84 382 Q122 391 165 404.5 Q208 418 253 435.5 Q298 453 342.5 474.5 Q387 496 428 520 L193 520 L218 611 L816 611 L816 520 L596 520 Q546 479 486 443 Q545 381 581 304 L838 459 L898 380 L753 295 Q800 216 857 147.5 Q914 79 986 21 L913 -56 Q833 13 775 85 Q717 157 666 244 L615 214 Q628 167 632 117.5 Q636 68 631 17 Q627 -21 617 -45.5 Q607 -70 591.5 -84.5 Q576 -99 555.5 -104 Q535 -109 510 -108 L362 -103 L359 -19 L479 -22 Q499 -23 510 -11.5 Q521 0 524 34 Q527 71 524 109 Q425 43 309 -5 Q193 -53 81 -80 L50 13 ZM178 685 Q167 685 160 678 Q153 671 153 660 L153 564 L42 564 L42 726 Q42 747 56.5 761.5 Q71 776 92 776 L452 776 L452 853 L563 865 L563 776 L923 776 Q944 776 958.5 761.5 Q973 747 973 726 L973 564 L862 564 L862 660 Q862 671 855 678 Q848 685 837 685 L178 685 Z" /><glyph glyph-name="cid2118" unicode="&#x52a0;" d="M847 -102 L847 -45 L669 -45 L669 -102 L558 -102 L558 704 Q558 725 573 739.5 Q588 754 608 754 L908 754 Q929 754 943.5 739.5 Q958 725 958 704 L958 -102 L847 -102 ZM258 867 L258 696 L422 696 Q450 696 468 681.5 Q486 667 486 639 L486 -30 Q486 -65 464.5 -84 Q443 -103 407 -101 L248 -93 L248 -4 L353 -12 Q375 -13 375 11 L375 592 Q375 597 371.5 601 Q368 605 363 605 L258 605 L258 511 Q258 333 221.5 175 Q185 17 113 -105 L15 -49 Q49 11 74 75.5 Q99 140 115.5 211 Q132 282 139.5 361 Q147 440 147 530 L147 605 L30 605 L54 696 L147 696 L147 867 L258 867 ZM690 663 Q669 663 669 641 L669 46 L847 46 L847 641 Q847 663 826 663 L690 663 Z" /><glyph glyph-name="cid2135" unicode="&#x95f4;" d="M279 549 Q279 569 293.5 583.5 Q308 598 329 598 L671 598 Q692 598 706.5 583.5 Q721 569 721 549 L721 127 Q721 107 706.5 92.5 Q692 78 671 78 L329 78 Q308 78 293.5 92.5 Q279 107 279 127 L279 549 ZM376 703 L405 794 L879 794 Q900 794 914.5 779.5 Q929 765 929 744 L929 -22 Q929 -62 907 -84 Q885 -106 840 -103 L612 -87 L610 4 L785 -9 Q804 -11 811 -4 Q818 3 818 19 L818 678 Q818 688 810.5 695.5 Q803 703 793 703 L376 703 ZM187 616 L187 -105 L76 -105 L76 616 L187 616 ZM596 169 Q614 169 614 188 L614 293 L386 293 L386 188 Q386 178 389.5 173.5 Q393 169 404 169 L596 169 ZM405 507 Q386 507 386 488 L386 383 L614 383 L614 488 Q614 507 595 507 L405 507 ZM204 864 L338 701 L248 634 L115 801 L204 864 Z" /><glyph glyph-name="cid2169" unicode="&#x5efa;" d="M940 350 L940 265 L680 265 L680 194 L953 194 L953 110 L680 110 L680 25 L569 25 L569 110 L310 110 L336 194 L569 194 L569 265 L341 265 L367 350 L569 350 L569 419 L368 419 L390 499 L569 499 L569 561 L328 561 L354 648 L569 648 L569 710 L368 710 L390 791 L569 791 L569 868 L680 868 L680 791 L862 791 Q883 791 898.5 775 Q914 759 914 739 L914 648 L975 648 L975 561 L914 561 L914 471 Q914 450 898.5 434.5 Q883 419 862 419 L680 419 L680 350 L940 350 ZM84 327 L164 213 Q199 303 214 397 L95 397 Q82 397 70 403.5 Q58 410 50.5 422 Q43 434 42.5 450 Q42 466 52 485 L188 716 L22 716 L42 808 L266 808 Q289 808 303 799.5 Q317 791 322.5 778 Q328 765 326.5 748.5 Q325 732 316 717 L180 489 L270 489 Q302 489 319 466.5 Q336 444 330 414 Q316 338 293.5 261 Q271 184 239 110 Q265 78 292.5 57.5 Q320 37 351.5 24 Q383 11 419.5 6 Q456 1 501 1 L985 1 L985 -90 L475 -90 Q424 -90 383.5 -84.5 Q343 -79 309 -67 Q275 -55 246.5 -35.5 Q218 -16 191 12 Q156 -50 113 -105 L23 -37 Q49 -7 72.5 29.5 Q96 66 117 107 L19 248 L84 327 ZM810 698 Q810 703 806.5 706.5 Q803 710 798 710 L680 710 L680 648 L810 648 L810 698 ZM798 499 Q803 499 806.5 502.5 Q810 506 810 511 L810 561 L680 561 L680 499 L798 499 Z" /><glyph glyph-name="cid2249" unicode="&#x8fdb;" d="M557 862 L557 718 L724 718 L724 862 L835 862 L835 718 L947 718 L947 627 L835 627 L835 432 L975 432 L975 341 L835 341 L835 57 L724 57 L724 341 L547 341 Q533 253 500.5 185 Q468 117 413 57 L322 119 Q368 167 396 221 Q424 275 436 341 L279 341 L307 432 L445 432 Q446 440 446 447.5 Q446 455 446 463 L446 627 L313 627 L340 718 L446 718 L446 862 L557 862 ZM15 425 L37 517 L172 517 Q199 517 218 498 Q237 479 237 452 L237 173 Q237 129 252.5 98 Q268 67 293.5 46.5 Q319 26 352 16.5 Q385 7 420 7 L983 7 L983 -84 L408 -84 Q371 -84 336 -76 Q301 -68 272 -52.5 Q243 -37 220 -15.5 Q197 6 184 33 L83 -96 L14 -8 L114 103 Q122 111 125 121.5 Q128 132 128 144 L128 410 Q128 416 123.5 420.5 Q119 425 113 425 L15 425 ZM724 432 L724 627 L557 627 L557 477 Q557 465 556.5 454 Q556 443 556 432 L724 432 ZM152 845 L270 650 L169 593 L53 788 L152 845 Z" /><glyph glyph-name="cid2359" unicode="&#x5f00;" d="M915 813 L915 722 L744 722 L744 439 L964 439 L964 348 L744 348 L744 -105 L633 -105 L633 348 L370 348 Q364 285 348 223.5 Q332 162 305.5 104 Q279 46 241 -6.5 Q203 -59 151 -105 L66 -27 Q150 43 196.5 135 Q243 227 257 348 L36 348 L63 439 L264 439 L264 722 L98 722 L122 813 L915 813 ZM375 439 L633 439 L633 722 L375 722 L375 439 Z" /><glyph glyph-name="cid2369" unicode="&#x770b;" d="M930 771 Q834 766 735.5 761.5 Q637 757 536 755 Q531 740 525 725.5 Q519 711 513 697 L912 697 L912 613 L473 613 Q464 596 455 579.5 Q446 563 436 547 L963 547 L963 463 L383 463 L338 401 L841 401 Q861 401 876 386.5 Q891 372 891 351 L891 -109 L780 -109 L780 -82 L313 -82 L313 -109 L202 -109 L202 250 Q171 221 139 194.5 Q107 168 74 144 L16 241 Q148 336 248 463 L35 463 L64 547 L308 547 Q319 563 329 579.5 Q339 596 348 613 L87 613 L116 697 L392 697 Q399 711 405 724.5 Q411 738 417 752 Q334 750 253 750 Q172 750 93 751 L86 840 Q293 838 504.5 842 Q716 846 920 858 L930 771 ZM313 133 L780 133 L780 188 L313 188 L313 133 ZM780 304 Q780 310 775.5 314.5 Q771 319 765 319 L328 319 Q322 319 317.5 314.5 Q313 310 313 304 L313 265 L780 265 L780 304 ZM313 1 L780 1 L780 54 L313 54 L313 1 Z" /><glyph glyph-name="cid2482" unicode="&#x72fc;" d="M727 868 L727 771 L892 771 Q913 771 927.5 756.5 Q942 742 942 721 L942 338 Q942 318 927.5 303 Q913 288 892 288 L721 288 Q732 257 747 228 Q762 199 779 172 L911 273 L976 194 L838 94 Q871 56 908.5 26 Q946 -4 987 -24 L907 -105 Q868 -82 825.5 -44 Q783 -6 743 44.5 Q703 95 668.5 156.5 Q634 218 612 288 L513 288 L513 24 Q513 9 519 4.5 Q525 0 542 2 L691 23 L691 -78 L490 -101 Q447 -106 424.5 -86 Q402 -66 402 -27 L402 723 Q402 744 417 757.5 Q432 771 452 771 L616 771 L616 845 L727 868 ZM366 770 Q337 736 306 702 Q275 668 242 635 Q270 562 288 487.5 Q306 413 315.5 339.5 Q325 266 326.5 196 Q328 126 323 63 Q319 14 308.5 -19.5 Q298 -53 279.5 -72.5 Q261 -92 234.5 -99.5 Q208 -107 173 -103 L39 -90 L40 9 L142 -6 Q177 -11 192 6.5 Q207 24 209 59 Q214 108 215 157.5 Q216 207 212 258 Q194 242 173.5 226 Q153 210 133 195 Q113 180 94 167.5 Q75 155 59 147 L12 239 Q60 267 108 305.5 Q156 344 197 383 Q189 426 178.5 468.5 Q168 511 154 554 Q132 535 110 516.5 Q88 498 65 481 L12 571 Q38 591 63.5 612.5 Q89 634 114 657 Q79 736 30 813 L119 866 Q141 835 160 803 Q179 771 196 737 Q222 763 245 789 Q268 815 289 841 L366 770 ZM513 572 L832 572 L832 659 Q832 669 825 676.5 Q818 684 807 684 L538 684 Q527 684 520 676.5 Q513 669 513 659 L513 572 ZM832 487 L513 487 L513 378 L807 378 Q818 378 825 385 Q832 392 832 403 L832 487 Z" /><glyph glyph-name="cid2699" unicode="&#x843d;" d="M900 513 Q870 465 828.5 427 Q787 389 736 357 Q796 336 858.5 321 Q921 306 987 295 L949 203 Q874 215 789 239 Q704 263 622 298 Q550 267 467.5 242.5 Q385 218 291 196 L250 289 Q313 299 377.5 316.5 Q442 334 504 357 Q455 386 413 419 Q371 380 335 357 L268 441 Q298 460 328.5 488 Q359 516 386.5 548.5 Q414 581 437 614.5 Q460 648 475 678 L585 656 Q579 642 571.5 627.5 Q564 613 556 599 L846 599 Q868 599 882.5 590.5 Q897 582 903.5 569.5 Q910 557 909.5 541.5 Q909 526 900 513 ZM829 215 Q850 215 865.5 199.5 Q881 184 881 163 L881 -109 L770 -109 L770 -80 L466 -80 L466 -109 L355 -109 L355 163 Q355 184 370 199.5 Q385 215 407 215 L829 215 ZM367 869 L367 813 L651 813 L651 869 L762 869 L762 813 L979 813 L979 722 L762 722 L762 658 L651 658 L651 722 L367 722 L367 658 L257 658 L257 722 L21 722 L50 813 L257 813 L257 869 L367 869 ZM17 -65 L162 228 L264 181 L119 -111 L17 -65 ZM770 114 Q770 119 766.5 122.5 Q763 126 758 126 L479 126 Q474 126 470 122.5 Q466 119 466 114 L466 10 L770 10 L770 114 ZM79 493 L251 365 L178 281 L10 411 L79 493 ZM130 679 L294 558 L221 477 L61 603 L130 679 ZM482 493 Q545 443 616 407 Q661 430 697.5 457 Q734 484 760 513 L498 513 L482 493 Z" /><glyph glyph-name="cid2706" unicode="&#x7801;" d="M411 723 L237 723 Q229 672 217.5 618.5 Q206 565 191 512 L347 512 Q368 512 383.5 496 Q399 480 399 460 L399 -32 L291 -32 L291 15 L203 15 L203 -43 L93 -43 L93 289 L9 350 Q51 425 81 519 Q111 613 127 723 L25 723 L49 814 L411 814 L411 723 ZM762 407 L781 724 Q782 729 778 733 Q774 737 770 737 L435 737 L459 828 L848 828 Q870 828 884 812 Q898 796 897 776 L875 407 L927 407 Q948 407 963.5 391 Q979 375 979 355 L979 -16 Q979 -64 953.5 -84.5 Q928 -105 881 -102 L675 -89 L672 1 L832 -9 Q849 -10 858.5 -4 Q868 2 868 20 L868 302 Q868 307 864 311 Q860 315 855 315 L503 315 Q485 315 471 327.5 Q457 340 459 358 L483 679 L594 671 L578 422 Q578 416 583.5 411.5 Q589 407 596 407 L762 407 ZM817 203 L817 112 L425 112 L451 203 L817 203 ZM203 107 L291 107 L291 412 Q291 420 282 420 L212 420 Q203 420 203 412 L203 107 Z" /><glyph glyph-name="cid2806" unicode="&#x6c11;" d="M931 343 L931 252 L658 252 Q670 207 683.5 167.5 Q697 128 712 98 Q733 58 753.5 40 Q774 22 791.5 21.5 Q809 21 823 35.5 Q837 50 844 76 L876 191 L972 142 L926 6 Q909 -46 871.5 -71.5 Q834 -97 790 -95.5 Q746 -94 701 -64 Q656 -34 624 25 Q598 73 578 130.5 Q558 188 543 252 L214 252 L214 42 Q214 14 227 8.5 Q240 3 263 7 L462 41 L462 -58 L236 -95 Q212 -99 188 -98 Q164 -97 145.5 -86 Q127 -75 115 -52.5 Q103 -30 103 9 L103 788 Q103 809 118 824.5 Q133 840 155 840 L846 840 Q867 840 882.5 824.5 Q898 809 898 788 L898 565 Q898 528 881.5 511.5 Q865 495 833 495 L614 495 Q619 457 624.5 419 Q630 381 638 343 L931 343 ZM771 585 Q777 585 781.5 589 Q786 593 786 600 L786 734 Q786 740 781.5 744.5 Q777 749 771 749 L232 749 Q225 749 219.5 744.5 Q214 740 214 734 L214 585 L771 585 ZM214 343 L525 343 Q518 381 512.5 419 Q507 457 502 495 L214 495 L214 343 Z" /><glyph glyph-name="cid2886" unicode="&#x4f60;" d="M135 -103 L135 398 Q94 332 48 269 L13 408 Q88 516 138.5 631.5 Q189 747 221 868 L329 835 Q311 774 290.5 717.5 Q270 661 246 607 L246 -103 L135 -103 ZM546 849 Q540 818 532.5 788.5 Q525 759 517 730 L925 730 Q942 730 953 723.5 Q964 717 970 707.5 Q976 698 977 687 Q978 676 975 666 L900 445 L793 466 L853 639 L486 639 Q465 585 440 533.5 Q415 482 385 431 L290 482 Q341 570 378.5 665.5 Q416 761 438 866 L546 849 ZM697 566 L697 -29 Q697 -70 673.5 -91 Q650 -112 607 -107 L436 -90 L435 -4 L551 -17 Q572 -19 579.5 -13.5 Q587 -8 587 12 L587 566 L697 566 ZM874 29 Q850 114 823 194 Q796 274 761 355 L862 389 Q897 307 925.5 227.5 Q954 148 976 62 L874 29 ZM505 362 Q483 277 455.5 200.5 Q428 124 393 46 L290 82 Q328 162 354 237 Q380 312 403 397 L505 362 Z" /><glyph glyph-name="cid2927" unicode="&#x2f25;&#x5973;" d="M495 832 L415 636 L965 636 L965 545 L795 545 Q770 421 722 323 Q674 225 603 148 L943 -5 L889 -103 L518 70 Q429 1 319.5 -42 Q210 -85 79 -104 L43 -4 Q257 23 404 123 L206 216 Q179 229 165.5 255.5 Q152 282 163 311 L257 545 L35 545 L63 636 L293 636 L386 867 L495 832 ZM494 198 Q627 332 676 545 L378 545 L287 322 Q277 296 296 288 L494 198 Z" /><glyph glyph-name="cid3117" unicode="&#x524d;" d="M87 -105 L87 544 Q87 565 102 579.5 Q117 594 137 594 L477 594 Q498 594 512 579.5 Q526 565 526 544 L526 -24 Q526 -42 522 -58 Q518 -74 508.5 -85 Q499 -96 483 -102 Q467 -108 443 -106 L285 -95 L285 -4 L390 -15 Q405 -16 410.5 -10 Q416 -4 416 12 L416 103 L198 103 L198 -105 L87 -105 ZM332 867 L400 743 L617 743 L689 867 L798 834 L738 743 L985 743 L985 652 L17 652 L44 743 L278 743 L225 837 L332 867 ZM936 600 L936 -30 Q936 -66 917 -87.5 Q898 -109 856 -106 L624 -91 L624 -1 L797 -13 Q825 -16 825 14 L825 600 L936 600 ZM731 559 L731 67 L620 67 L620 559 L731 559 ZM223 503 Q212 503 205 496 Q198 489 198 478 L198 391 L416 391 L416 478 Q416 489 408.5 496 Q401 503 391 503 L223 503 ZM198 194 L416 194 L416 300 L198 300 L198 194 Z" /><glyph glyph-name="cid3238" unicode="&#x2f08;&#x4eba;" d="M569 858 Q567 801 562.5 749.5 Q558 698 552 649 Q578 533 625.5 430.5 Q673 328 732.5 243 Q792 158 858.5 92.5 Q925 27 990 -15 L923 -108 Q860 -65 799 -7.5 Q738 50 684.5 120.5 Q631 191 586.5 273 Q542 355 511 447 Q484 354 444.5 275 Q405 196 351.5 127.5 Q298 59 229.5 1 Q161 -57 76 -108 L11 -20 Q128 48 211 131.5 Q294 215 347.5 322 Q401 429 428 563.5 Q455 698 461 868 L569 858 Z" /><glyph glyph-name="cid3270" unicode="&#x2f0a;&#x5165;" d="M448 855 Q536 577 675 359.5 Q814 142 986 -23 L904 -108 Q789 4 690.5 133.5 Q592 263 510 424 Q474 352 423.5 277.5 Q373 203 316.5 132.5 Q260 62 200.5 0 Q141 -62 86 -108 L15 -28 Q65 17 122.5 78 Q180 139 238 212.5 Q296 286 350 372 Q404 458 448 553 Q421 615 395.5 682 Q370 749 347 822 L448 855 Z" /><glyph glyph-name="cid3306" unicode="&#x6740;" d="M565 523 L565 394 L947 394 L947 304 L565 304 L565 -16 Q565 -63 542 -85.5 Q519 -108 469 -105 L291 -92 L290 -1 L422 -11 Q439 -13 446.5 -7.5 Q454 -2 454 15 L454 304 L39 304 L68 394 L454 394 L454 523 L565 523 ZM879 450 L515 601 Q408 556 301.5 518.5 Q195 481 98 454 L62 546 Q139 566 220 593.5 Q301 621 385 655 L96 775 L156 853 L512 709 Q591 745 666 784 Q741 823 810 865 L879 787 Q825 753 765 721 Q705 689 641 658 L937 539 L879 450 ZM895 -69 L690 172 L777 232 L979 -2 L895 -69 ZM22 8 L224 242 L308 183 L105 -59 L22 8 Z" /><glyph glyph-name="cid3366" unicode="&#x2f9d;&#x8eab;" d="M158 733 Q158 754 173 768.5 Q188 783 208 783 L360 783 L400 868 L511 854 L477 783 L776 783 Q797 783 811.5 768.5 Q826 754 826 733 L826 335 Q878 371 931 413 L985 324 Q944 293 904.5 266 Q865 239 826 213 L826 -17 Q826 -63 805 -88.5 Q784 -114 730 -110 L502 -94 L500 -9 L680 -21 Q702 -23 708.5 -17.5 Q715 -12 715 8 L715 147 Q635 103 555 67.5 Q475 32 392.5 3.5 Q310 -25 223 -47 Q136 -69 43 -87 L20 14 Q172 41 310 84 Q448 127 577 190 L16 190 L42 281 L158 281 L158 733 ZM269 448 L715 448 L715 526 L269 526 L269 448 ZM715 673 Q715 681 709 687 Q703 693 695 693 L289 693 Q281 693 275 687 Q269 681 269 673 L269 615 L715 615 L715 673 ZM269 281 L715 281 L715 358 L269 358 L269 281 Z" /><glyph glyph-name="cid3411" unicode="&#x59cb;" d="M14 -28 Q58 13 94.5 60 Q131 107 160 159 L56 266 Q32 296 37 334 L76 580 L14 580 L31 671 L90 671 L121 867 L231 852 L198 671 L324 671 Q353 671 371 651.5 Q389 632 388 606 Q384 489 357.5 381.5 Q331 274 286 178 L412 53 L342 -29 L234 82 Q202 30 166 -15.5 Q130 -61 89 -101 L14 -28 ZM822 -106 L822 -59 L553 -59 L553 -106 L442 -106 L442 297 Q442 317 457 331.5 Q472 346 492 346 L883 346 Q904 346 918.5 331.5 Q933 317 933 297 L933 -106 L822 -106 ZM841 724 L985 435 L891 383 L851 463 L483 414 Q438 409 419 435 Q400 461 421 503 L604 866 L710 825 L544 516 L807 551 L743 682 L841 724 ZM578 256 Q567 256 560 249 Q553 242 553 231 L553 32 L822 32 L822 231 Q822 242 815 249 Q808 256 797 256 L578 256 ZM207 258 Q238 332 255.5 409.5 Q273 487 278 568 Q278 580 270 580 L182 580 L139 340 Q138 332 144 322 L207 258 Z" /><glyph glyph-name="cid3439" unicode="&#x5b88;" d="M728 613 L728 471 L983 471 L983 380 L728 380 L728 -21 Q728 -66 704.5 -89 Q681 -112 629 -108 L413 -93 L412 -3 L581 -18 Q603 -20 610 -11 Q617 -2 617 18 L617 380 L32 380 L57 471 L617 471 L617 613 L728 613 ZM198 673 Q187 673 180 666 Q173 659 173 648 L173 539 L63 539 L63 714 Q63 734 77.5 748.5 Q92 763 112 763 L444 763 L444 846 L554 861 L554 763 L895 763 Q915 763 930 748.5 Q945 734 945 714 L945 539 L835 539 L835 648 Q835 659 828 666 Q821 673 810 673 L198 673 ZM223 320 L425 131 L347 55 L147 247 L223 320 Z" /><glyph glyph-name="cid3451" unicode="&#x8f93;" d="M209 847 L187 733 L352 733 L352 642 L169 642 L123 399 L174 399 L174 579 L275 579 L275 399 L347 399 L347 308 L275 308 L275 203 L341 214 L355 118 L275 105 L275 -106 L165 -106 L165 87 L29 66 L14 162 L165 186 L165 308 L80 308 Q42 308 27.5 329 Q13 350 20 386 L66 642 L14 642 L39 733 L82 733 L106 864 L209 847 ZM559 -19 Q570 -20 574 -17 Q578 -14 578 0 L578 67 L479 67 L479 -103 L377 -103 L377 429 Q377 457 392.5 472.5 Q408 488 434 488 L623 488 Q649 488 664.5 472 Q680 456 680 429 L680 -19 Q680 -109 596 -103 L516 -96 L515 -15 L559 -19 ZM738 856 Q733 848 728.5 840 Q724 832 719 824 Q772 765 842 708.5 Q912 652 987 614 L933 524 Q908 537 882 553.5 Q856 570 829 590 L829 538 L492 538 L510 593 Q456 550 403 518 L346 606 Q382 627 421.5 657 Q461 687 498.5 722 Q536 757 569.5 795.5 Q603 834 626 872 L738 856 ZM962 484 L962 -18 Q962 -62 941 -83.5 Q920 -105 877 -102 L741 -90 L738 -1 L836 -9 Q848 -10 853 -6 Q858 -2 858 12 L858 484 L962 484 ZM818 446 L818 53 L722 53 L722 446 L818 446 ZM661 743 Q606 676 541 620 L790 620 Q718 677 661 743 ZM479 319 L578 319 L578 387 Q578 394 573.5 398 Q569 402 563 402 L494 402 Q489 402 484 397.5 Q479 393 479 387 L479 319 ZM479 152 L578 152 L578 234 L479 234 L479 152 Z" /><glyph glyph-name="cid3476" unicode="&#x6570;" d="M400 546 L508 419 Q533 464 555 518.5 Q577 573 595.5 631.5 Q614 690 628.5 750.5 Q643 811 653 868 L762 849 Q757 814 747.5 774 Q738 734 725 690 L988 690 L988 599 L938 599 Q929 466 902 359 Q875 252 829 163 Q899 49 989 -20 L916 -104 Q874 -71 837 -29.5 Q800 12 767 61 Q734 15 695 -25.5 Q656 -66 610 -104 L537 -21 Q591 19 633.5 65 Q676 111 708 163 Q680 220 658.5 284.5 Q637 349 623 420 Q612 397 601 376.5 Q590 356 579 339 L517 406 L441 346 L336 474 L336 371 L225 371 L225 495 Q169 401 80 325 L15 413 Q53 440 90 479 Q127 518 156 566 L18 566 L40 655 L225 655 L225 868 L336 868 L336 655 L525 655 L525 566 L336 566 L336 503 L400 546 ZM309 337 L279 289 L454 289 Q474 289 488 281 Q502 273 509 260 Q516 247 516 231 Q516 215 509 199 Q475 120 406 55 L528 14 L467 -73 L310 -15 Q256 -46 192 -68.5 Q128 -91 56 -105 L15 -14 Q107 0 184 31 L104 61 Q72 72 65 95 Q58 118 74 147 L106 202 L13 202 L35 289 L156 289 L199 362 L309 337 ZM697 599 Q702 513 720.5 434 Q739 355 768 283 Q795 354 809.5 432.5 Q824 511 829 599 L697 599 ZM519 803 L439 665 L358 715 L432 848 L519 803 ZM117 848 L191 715 L110 665 L31 803 L117 848 ZM226 202 L190 142 Q188 138 189 133.5 Q190 129 195 127 L294 93 Q361 142 391 202 L226 202 Z" /><glyph glyph-name="cid3779" unicode="&#x672a;" d="M921 -48 Q810 26 720 104.5 Q630 183 555 272 L555 -109 L444 -109 L444 266 Q365 176 271 97.5 Q177 19 75 -45 L13 45 Q118 110 211.5 188.5 Q305 267 384 361 L42 361 L71 452 L444 452 L444 634 L114 634 L143 725 L444 725 L444 868 L555 868 L555 725 L886 725 L886 634 L555 634 L555 452 L953 452 L953 361 L615 361 Q695 266 789 186.5 Q883 107 987 41 L921 -48 Z" /><glyph glyph-name="cid3791" unicode="&#x536b;" d="M76 707 L104 798 L860 798 Q881 798 895.5 783 Q910 768 910 748 L910 323 Q910 286 891 264 Q872 242 829 244 L625 254 L624 345 L768 338 Q786 336 792.5 342.5 Q799 349 799 366 L799 682 Q799 693 792 700 Q785 707 774 707 L513 707 L513 20 L976 20 L976 -70 L21 -70 L49 20 L402 20 L402 707 L76 707 Z" /><glyph glyph-name="cid3814" unicode="&#x5deb;" d="M296 647 Q287 554 269 473 L444 200 L444 736 L55 736 L79 827 L945 827 L945 736 L555 736 L555 192 Q630 286 674 407.5 Q718 529 727 657 L838 643 Q834 599 827 558 Q820 517 809 478 L983 190 L900 115 L766 345 Q736 271 698.5 210.5 Q661 150 622 105 L555 164 L555 15 L985 15 L985 -76 L15 -76 L39 15 L444 15 L444 181 L367 118 L228 337 Q201 264 167 205 Q133 146 93 99 L11 168 Q52 216 83 273.5 Q114 331 135 394 Q156 457 168.5 525 Q181 593 185 662 L296 647 Z" /><glyph glyph-name="cid3876" unicode="&#x620f;" d="M978 434 Q926 355 865 282 Q804 209 737 145 Q737 144 738 143 Q753 101 771.5 70 Q790 39 807.5 27.5 Q825 16 839 28.5 Q853 41 861 85 L881 203 L985 174 L957 41 Q943 -29 911 -66 Q879 -103 828 -105 Q777 -106 729 -63.5 Q681 -21 646 64 Q589 16 530.5 -24 Q472 -64 415 -95 L358 -2 Q421 31 484.5 76 Q548 121 609 174 Q588 244 573 322 Q558 400 547 494 L418 478 L404 573 L537 590 Q526 711 522 856 L635 865 Q635 804 638.5 738.5 Q642 673 648 605 L967 646 L983 550 L659 509 Q667 444 678 382 Q689 320 703 263 Q757 319 803.5 377 Q850 435 885 493 L978 434 ZM96 582 Q127 541 158 499 Q189 457 219 413 Q239 481 251 548 Q263 615 268 678 L22 678 L50 769 L318 769 Q347 769 365 750.5 Q383 732 381 703 Q374 604 352 501 Q330 398 295 299 Q330 244 360.5 192.5 Q391 141 416 94 L326 36 Q307 70 287 105 Q267 140 245 176 Q213 107 176 48 Q139 -11 97 -57 L15 15 Q63 67 103.5 136.5 Q144 206 176 285 Q136 347 95.5 406.5 Q55 466 15 521 L96 582 ZM764 860 L903 734 L826 659 L693 790 L764 860 Z" /><glyph glyph-name="cid4093" unicode="&#x2f94;&#x8a00;" d="M122 -108 L122 196 Q122 216 136.5 231 Q151 246 172 246 L825 246 Q846 246 860.5 231 Q875 216 875 196 L875 -108 L765 -108 L765 -73 L233 -73 L233 -108 L122 -108 ZM556 868 L556 771 L968 771 L968 680 L32 680 L61 771 L445 771 L445 845 L556 868 ZM257 156 Q247 156 240 149 Q233 142 233 131 L233 18 L765 18 L765 131 Q765 142 757.5 149 Q750 156 740 156 L257 156 ZM878 502 L119 502 L147 593 L878 593 L878 502 ZM878 326 L119 326 L147 417 L878 417 L878 326 Z" /><glyph glyph-name="cid4275" unicode="&#x6e38;" d="M395 393 Q389 241 359.5 118 Q330 -5 270 -104 L178 -46 Q234 47 260.5 171 Q287 295 287 461 L287 610 L206 610 L235 701 L349 701 L349 830 L459 854 L459 701 L581 701 L581 610 L396 610 L396 483 L521 483 Q542 483 556.5 468.5 Q571 454 571 434 L571 -8 Q571 -54 549.5 -80 Q528 -106 474 -100 L375 -90 L373 -2 L432 -9 Q449 -11 456.5 -6 Q464 -1 464 18 L464 378 Q464 384 460 388.5 Q456 393 449 393 L395 393 ZM790 850 Q785 827 780 806 Q775 785 769 764 L988 764 L988 673 L737 673 Q726 646 714 620.5 Q702 595 688 572 L911 572 Q933 572 946 563 Q959 554 964.5 540 Q970 526 968 509.5 Q966 493 957 478 L868 327 Q862 317 860 304 L989 304 L989 214 L860 214 L860 -13 Q860 -63 833.5 -88 Q807 -113 756 -105 L640 -92 L640 -6 L716 -14 Q738 -16 743.5 -11.5 Q749 -7 749 11 L749 214 L598 214 L627 304 L749 304 L749 314 Q749 322 751.5 331.5 Q754 341 758 348 L837 482 L658 482 L678 555 Q664 531 650 512 L571 578 Q591 607 609 643.5 Q627 680 642 718.5 Q657 757 668 795.5 Q679 834 684 867 L790 850 ZM16 -72 L113 295 L216 261 L116 -106 L16 -72 ZM95 590 L221 428 L134 358 L12 521 L95 590 ZM101 870 L218 722 L131 654 L16 805 L101 870 Z" /><glyph glyph-name="cid4327" unicode="&#x9884;" d="M273 423 L273 -11 Q273 -63 247 -86.5 Q221 -110 163 -102 L46 -85 L43 6 L131 -7 Q148 -9 155.5 -3.5 Q163 2 163 22 L163 423 L14 423 L34 514 L132 514 L55 664 L151 704 L229 550 L311 759 L33 759 L61 850 L368 848 Q409 847 422.5 820.5 Q436 794 426 763 L327 514 L402 514 Q422 514 437 499.5 Q452 485 452 464 L452 271 L348 271 L348 401 Q348 412 341 417.5 Q334 423 323 423 L273 423 ZM621 545 Q610 545 603 537.5 Q596 530 596 520 L596 109 L492 109 L492 582 Q492 603 506.5 617.5 Q521 632 542 632 L637 632 L669 751 L470 751 L496 842 L976 842 L976 751 L781 751 L750 632 L914 632 Q935 632 949.5 617.5 Q964 603 964 582 L964 109 L860 109 L860 520 Q860 530 853 537.5 Q846 545 835 545 L621 545 ZM783 488 L783 262 Q783 200 771 148 L986 -27 L918 -107 L730 49 Q698 -1 640.5 -40 Q583 -79 492 -108 L438 -15 Q508 4 553 30 Q598 56 624.5 89 Q651 122 661.5 162.5 Q672 203 672 252 L672 488 L783 488 Z" /><glyph glyph-name="cid4665" unicode="&#x603b;" d="M343 864 L417 727 L591 727 L665 864 L766 826 L710 727 L829 727 Q850 727 864.5 712 Q879 697 879 677 L879 366 Q879 345 864.5 330.5 Q850 316 829 316 L178 316 Q158 316 143.5 330.5 Q129 345 129 366 L129 677 Q129 697 143.5 712 Q158 727 178 727 L297 727 L242 826 L343 864 ZM264 636 Q253 636 246 629 Q239 622 239 611 L239 432 Q239 421 246 414 Q253 407 264 407 L743 407 Q754 407 761 414 Q768 421 768 432 L768 611 Q768 622 761 629 Q754 636 743 636 L264 636 ZM608 -7 Q640 -7 651 1.5 Q662 10 667 35 L685 123 L788 94 L757 -34 Q747 -74 722 -86.5 Q697 -99 658 -99 L370 -99 Q315 -99 287 -73.5 Q259 -48 259 7 L259 254 L370 254 L370 35 Q370 16 380.5 4.5 Q391 -7 409 -7 L608 -7 ZM30 -54 L99 237 L204 210 L135 -80 L30 -54 ZM880 -70 L795 209 L900 243 L984 -35 L880 -70 ZM534 74 L434 248 L530 290 L631 120 L534 74 Z" /><glyph glyph-name="cid4694" unicode="&#x5ea7;" d="M446 605 Q444 580 439.5 554 Q435 528 427 502 L532 364 L532 648 L643 648 L643 356 Q665 383 684 415 Q703 447 717.5 482 Q732 517 740.5 552.5 Q749 588 752 622 L858 605 Q856 583 852 560.5 Q848 538 841 515 L973 345 L895 274 L798 400 Q779 362 757 328.5 Q735 295 709 269 L643 328 L643 231 L912 231 L912 140 L643 140 L643 10 L970 10 L970 -81 L203 -81 L230 10 L532 10 L532 140 L262 140 L288 231 L532 231 L532 338 L466 278 L383 387 Q366 353 345.5 323 Q325 293 301 267 L220 338 Q245 365 265.5 398.5 Q286 432 302 469.5 Q318 507 327.5 546 Q337 585 340 621 L446 605 ZM973 780 L973 689 L222 689 Q216 689 212 684 Q208 679 208 674 L208 344 Q208 214 186.5 100.5 Q165 -13 108 -104 L12 -54 Q36 -12 52 31 Q68 74 78 122.5 Q88 171 92 229 Q96 287 96 359 L96 720 Q96 745 113.5 762.5 Q131 780 156 780 L518 780 L518 852 L629 867 L629 780 L973 780 Z" /><glyph glyph-name="cid6425" unicode="&#x6635;" d="M531 321 Q531 190 505.5 81.5 Q480 -27 436 -108 L338 -61 Q387 23 404.5 118.5 Q422 214 422 334 L422 789 Q422 810 436.5 824.5 Q451 839 472 839 L922 839 Q943 839 957.5 824.5 Q972 810 972 789 L972 549 Q972 529 957.5 514 Q943 499 922 499 L531 499 L531 321 ZM251 5 L251 48 L149 48 L149 1 L43 1 L43 750 Q43 770 57.5 785 Q72 800 92 800 L308 800 Q328 800 343 785 Q358 770 358 750 L358 5 L251 5 ZM705 161 L705 26 Q705 14 713.5 5 Q722 -4 735 -4 L826 -4 Q845 -4 855 3 Q865 10 868 32 L883 143 L985 115 L961 -21 Q952 -60 930.5 -76.5 Q909 -93 871 -93 L676 -93 Q643 -93 619.5 -69.5 Q596 -46 596 -13 L596 448 L705 448 L705 269 L925 405 L979 318 L705 161 ZM556 750 Q546 750 538.5 742.5 Q531 735 531 725 L531 589 L838 589 Q849 589 856 596 Q863 603 863 614 L863 725 Q863 735 856 742.5 Q849 750 838 750 L556 750 ZM149 467 L251 467 L251 694 Q251 700 246.5 704.5 Q242 709 236 709 L164 709 Q158 709 153.5 704.5 Q149 700 149 694 L149 467 ZM149 139 L251 139 L251 376 L149 376 L149 139 Z" /></font>
</defs>
</svg>
