<?xml version="1.0" standalone="no"?><!DOCTYPE svg PUBLIC "-//W3C//DTD SVG 1.1//EN" "http://www.w3.org/Graphics/SVG/1.1/DTD/svg11.dtd"><svg width="200" height="200" viewBox="0 0 200 200" version="1.1" xmlns="http://www.w3.org/2000/svg" xmlns:xlink="http://www.w3.org/1999/xlink"><defs><style type="text/css"><![CDATA[
@font-face { font-family: ifont; src: url("//at.alicdn.com/t/font_1442373896_4754455.eot?#iefix") format("embedded-opentype"), url("//at.alicdn.com/t/font_1442373896_4754455.woff") format("woff"), url("//at.alicdn.com/t/font_1442373896_4754455.ttf") format("truetype"), url("//at.alicdn.com/t/font_1442373896_4754455.svg#ifont") format("svg"); }

]]></style></defs><g class="transform-group"><g transform="scale(0.1953125, 0.1953125)"><path d="M686.192446 471.803509 552.198178 471.803509 552.198178 337.814866c0-14.798031-12.000815-26.797319-26.798444-26.797319l-26.798444 0c-14.798652 0-26.798444 12.000312-26.798444 26.797319l0 133.988644L337.807554 471.803509c-14.803769 0-26.798444 12.000312-26.798444 26.797319l0 26.797319c0 14.803147 11.994675 26.797319 26.798444 26.797319l133.994268 0 0 133.988644c0 14.803147 12.000815 26.797319 26.798444 26.797319l26.798444 0c14.798652 0 26.798444-11.994172 26.798444-26.797319L552.197155 552.196491l133.994268 0c14.798652 0 26.798444-11.994172 26.798444-26.797319l0-26.797319C712.99089 483.802798 700.990074 471.803509 686.192446 471.803509z" fill="#272636"></path></g></g></svg>