<?xml version="1.0"?><svg width="400" height="400" xmlns="http://www.w3.org/2000/svg">

 <metadata id="metadata4893">image/svg+xml</metadata>
 <g>
  <title>Layer 1</title>
  <g id="layer1">
   <g font-size="225.160095px" font-style="normal" font-weight="normal" fill="#000000" display="inline" font-family="Eras Bold ITC" id="text11467">
    <path fill="#3f007f" fill-rule="evenodd" id="path5127" d="m167.046005,44.991028l-5.611008,40.607971l-5.119995,6.189026l-0.947006,0.859985l-2.296997,2.646973l-2.121002,3.051025l-1.964005,3.401978l-1.806,3.752014l-1.577988,4.049988l-1.403,4.348022l-1.174011,4.593994l-0.911987,4.856995l-0.702011,5.049988l-0.403,5.26001l-0.15799,5.382996l0.15799,5.36499l0.403,5.26001l0.702011,5.049988l0.911987,4.856995l1.174011,4.594055l1.403,4.347961l1.577988,4.051025l1.806,3.768982l1.964005,3.383972l2.121002,3.051025l2.296997,2.64801l2.419998,2.208984l2.560013,1.789001l1.296997,0.700989l1.350998,0.596008l1.384995,0.473999l1.367004,0.333008l1.403,0.192993l1.438004,0.070007l1.419998,-0.070007l1.403,-0.192993l1.384995,-0.333008l1.367996,-0.473999l1.350006,-0.596008l1.315002,-0.700989l2.541992,-1.789001l2.420013,-2.208984l2.296997,-2.64801l2.121002,-3.051025l1.998993,-3.383972l1.770996,-3.768982l1.596008,-4.051025l1.401993,-4.347961l1.158005,-4.594055l0.929001,-4.856995l0.68399,-5.049988l0.333008,-4.208008l-0.438004,0.070007c0.740997,-15.044006 -1,-27.984985 -7.470001,-43.447998l-2.822998,-4.97998l-1.261993,-1.80603l-2.296997,-2.64801l-2.420013,-2.208984l-2.541992,-1.787964l-1.315002,-0.702026l-1.016998,-0.455017l-2.209,-4.593994l-5.242996,-37.907959zm67.330002,3.067993l-8.469009,42.958008l-1.298004,0.700989l-2.55899,1.789001l-2.419998,2.208984l-2.297012,2.64801l-1.244995,1.804993l-2.839996,4.97998c-4.876999,13.953003 -7.843994,28.329041 -7.470001,43.449036l-0.438004,-0.070007l0.333008,4.208008l0.68399,5.049988l0.929001,4.856995l1.175003,4.593018l1.403,4.348999l1.578003,4.049988l1.787994,3.77002l1.981003,3.383972l2.121994,3.051025l2.297012,2.646973l2.419998,2.210022l2.55899,1.787964l1.298004,0.700989l1.350006,0.597046l1.367996,0.472961l1.384995,0.333008l1.403,0.192993l1.419998,0.070007l1.438004,-0.070007l1.402008,-0.192993l1.384995,-0.333008l1.367996,-0.472961l1.350006,-0.597046l1.298004,-0.700989l2.559998,-1.787964l2.418991,-2.210022l2.297012,-2.646973l2.121994,-3.051025l1.964005,-3.383972l1.806,-3.77002l1.578003,-4.049988l1.401978,-4.348999l1.175018,-4.593018l0.929993,-4.856995l0.683014,-5.049988l0.403992,-5.26001l0.157013,-5.382996l-0.157013,-5.366028l-0.403992,-5.26001l-0.683014,-5.04895l-0.929993,-4.857056l-1.175018,-4.593994l-1.401978,-4.348999l-1.578003,-4.049988l-1.806,-3.752014l-1.964005,-3.401978l-2.121994,-3.049988l-2.297012,-2.64801l-0.945999,-0.859009l-5.119995,-6.190002l-5.610992,-40.607971l0,0zm-139.920204,74.903992l-0.07,0.036011l-0.0877,0l-0.070107,0.016968l-0.070198,0l-0.157898,0l-0.1577,0l-0.157799,0.035034l-0.140305,0.018005l-0.315598,0.051941l-0.070099,0.018005l-0.105202,0.052002l-0.157898,0.05304l-0.140305,0.034973l-0.1577,0.052979l-0.157799,0.070007l-0.157898,0.087036l-0.280502,0.122986l-0.140297,0.10498l-0.140205,0.106018l-0.280495,0.156982l-0.578705,0.421021l-0.315498,0.281006l-0.280495,0.263l-0.5261,0.542969l-1.052101,1.350037l-1.0168,1.614014l-0.912003,1.841003l-0.876503,2.085999l-0.753998,2.261963l-0.718903,2.471985l-1.104599,5.453003l-0.701401,6.067017l-0.263,6.434998l0.263,6.452026l0.701401,6.066956l1.104599,5.453003l0.718903,2.472046l0.753998,2.261963l0.876503,2.087036l0.228104,0.455994l-0.035004,0.244995l-0.0877,3.612l0.140198,3.77002l0.420799,3.891968l0.6838,4.067993l0.964401,4.103027l1.227402,4.208008l1.507896,4.242981l1.788406,4.226013l2.016396,4.138l2.191803,3.909973l2.314102,3.664978l2.473,3.401001l2.559998,3.139038l2.647003,2.839966l2.734993,2.54303l2.753006,2.244019l2.770996,1.875977l2.787003,1.526001l2.752998,1.192017l2.735001,0.789001l2.666,0.420959l2.611992,-0.034973l1.24501,-0.15802l1.22699,-0.263l1.193008,-0.385986l1.173996,-0.491028l1.123001,-0.595947l1.052002,-0.70105l0.998993,-0.806946l0.929001,-0.894043l1.666,-2.016968l1.420013,-2.367004l1.15799,-2.647034l0.910995,-2.945984l0.649002,-3.190979l0.368011,-3.419006l0.105988,-3.612l-0.140991,-3.77002l-0.421005,-3.891968l-0.682999,-4.068054l-0.964996,-4.102966l-1.227005,-4.208008l-1.507996,-4.244019l-1.787994,-4.224976l-2.017014,-4.138l-2.156998,-3.909973l-2.348999,-3.665039l-2.455002,-3.401001l-2.576996,-3.138977l-2.629997,-2.840027l-2.718002,-2.542969l-2.752998,-2.209045l-2.788002,-1.91095l-2.788002,-1.526001l-2.769997,-1.192017l-2.735001,-0.789001l-2.682999,-0.421021l-2.577003,0.035034l-1.263,0.157959l-1.227196,0.263l-0.876701,0.281006l-0.017197,-0.087952l-1.192207,-3.296021l-1.104797,-3.455017l-0.911697,-3.612l-0.753899,-3.768982l-0.578705,-3.804993l-0.333,-3.735046l-0.157799,-3.612l0,-3.523987l0.227798,-3.367004l0.420799,-3.208008l0.105202,-0.490967l0.0877,-0.491028l0.157799,-0.928955l-0.017799,0l-0.034996,-0.036011l-0.017899,0l-0.035004,0l-0.070198,0l-0.052803,0l0.000404,0zm209.073189,0.052979l-0.035004,0.035034l-0.016998,0l0.15802,0.928955l0.087982,0.491028l0.105011,0.490967l0.42099,3.209045l0.22702,3.367004l0,3.523987l-0.157013,3.612l-0.333008,3.734985l-0.578979,3.804016l-0.753998,3.769958l-0.912018,3.612l-1.104004,3.454041l-1.192993,3.296997l-0.016998,0.086975l-0.877014,-0.279968l-1.22699,-0.263l-1.261993,-0.15802l-2.578003,-0.034973l-2.683014,0.420959l-2.734985,0.789001l-2.769989,1.192017l-2.788025,1.525024l-2.787994,1.911987l-2.752991,2.208984l-2.718018,2.541992l-2.629974,2.841003l-2.577026,3.138l-2.454987,3.402039l-2.348999,3.66394l-2.157013,3.910034l-2.015991,4.138l-1.789001,4.226013l-1.507996,4.242981l-1.227005,4.208008l-0.963989,4.102966l-0.684006,4.068054l-0.421005,3.892944l-0.139999,3.769043l0.105011,3.612l0.367996,3.419983l0.649002,3.190979l0.910995,2.945007l1.158005,2.64801l1.419983,2.367004l1.666016,2.015991l0.928986,0.89502l0.999023,0.805969l1.052002,0.702026l1.122986,0.596008l1.174011,0.490967l1.192993,0.38501l1.22699,0.263l1.244995,0.15802l2.613007,0.034973l2.665009,-0.419983l2.734985,-0.789001l2.753021,-1.192993l2.787994,-1.525024l2.769989,-1.875977l2.753021,-2.244995l2.734985,-2.541992l2.64801,-2.841003l2.559998,-3.138l2.471985,-3.402039l2.313995,-3.664001l2.192017,-3.909973l2.015991,-4.138l1.789001,-4.226013l1.507996,-4.242981l1.22702,-4.208008l0.964996,-4.103027l0.682983,-4.067993l0.421021,-3.893005l0.139984,-3.768982l-0.087006,-3.612l-0.035004,-0.245972l0.228027,-0.455994l0.875977,-2.085999l0.755005,-2.262024l0.718018,-2.471985l1.10498,-5.453003l0.701019,-6.067017l0.263,-6.452026l-0.263,-6.434998l-0.701019,-6.066956l-1.10498,-5.453003l-0.718018,-2.471985l-0.755005,-2.262024l-0.875977,-2.087036l-0.912018,-1.840942l-1.016998,-1.613037l-1.052002,-1.349976l-0.526001,-0.544006l-0.281006,-0.263l-0.315002,-0.280029l-0.578979,-0.420959l-0.279999,-0.15802l-0.140015,-0.10498l-0.140991,-0.105042l-0.279999,-0.122986l-0.15802,-0.088013l-0.15799,-0.070007l-0.15799,-0.052002l-0.140015,-0.034973l-0.15799,-0.052979l-0.105011,-0.05304l-0.069977,-0.016968l-0.31601,-0.05304l-0.140015,-0.016968l-0.15799,-0.034973l-0.15799,0l-0.15802,0l-0.069977,0l-0.070007,-0.018005l-0.088013,0l-0.070007,-0.035034l-0.051971,0l-0.071014,0l-0.035004,0l-0.016998,0l-0.001007,0zm-105.710999,88.616028l-3.681992,0.209961l-3.559998,0.562012l-3.45401,0.945984l-3.313995,1.298035l-3.138,1.612976l-2.981003,1.894043c-9.713989,10.54895 -12.700989,21.098999 -17.515991,31.647949l-2.069,2.92804l-2.332001,2.700989l-2.578003,2.471985l-2.753006,2.208984l-2.979996,1.894043l-3.138992,1.612976c-11.44101,2.875977 -18.632004,7.169006 -24.863007,11.78302l-2.576996,2.471985l-2.332001,2.700012l-2.052002,2.945984l-2.770004,5.294983l-0.560997,1.210022l-1.209999,3.507019l-0.876999,3.664001l-0.561005,3.786987l-0.174995,3.909973l0.174995,3.893005l0.561005,3.804993l0.876999,3.664001l1.209999,3.507019l1.508003,3.33197l1.822998,3.173035l2.052002,2.927979l2.332001,2.700989l2.576996,2.472046l2.752998,2.208984l2.981003,1.911011l3.137993,1.596008l3.314011,1.315002c6.520996,3.329956 12.168991,3.393982 19.269989,0.613953l0.035004,-0.052979l2.069,-0.560974l3.313995,-1.315002l3.138,-1.596008l2.998001,-1.911011c18.088013,-11.653015 38.070999,-18.687012 69.223999,1.507996l2.981003,1.911011c9.934006,6.628967 20.39801,6.120972 31.156998,1.612976l3.121002,-1.612976l2.998993,-1.911011l2.753021,-2.210022l2.576996,-2.471985l2.313995,-2.700012l2.069,-2.927979l1.806,-3.174011l1.507996,-3.330994l1.227997,-3.507019l0.859009,-3.664978l0.561005,-3.804016l0.192993,-3.893005l-0.192993,-3.909973l-0.561005,-3.786987l-0.859009,-3.665039l-1.227997,-3.506958l-1.507996,-3.330994l-1.806,-3.174011l-2.069,-2.945007l-2.313995,-2.700989l-2.576996,-2.472046l-2.753021,-2.208984l-2.998993,-1.893982l-11.343994,-3.296021l-3.313995,-1.315002l-3.139008,-1.612976l-2.979996,-1.893982l-2.753006,-2.209045l-2.576996,-2.471985l-2.332001,-2.700989l-2.052002,-2.945007l-1.822998,-3.156006l-8.977997,-22.723999l-2.069,-2.945984l-2.314011,-2.700012l-2.577988,-2.473022l-2.753006,-2.208984l-2.979996,-1.893005l-3.139008,-1.612976l-3.313995,-1.298035l-3.453995,-0.94696l-3.577011,-0.561035l-3.664001,-0.209961l0,0z"/>
   </g>
  </g>
 </g>
</svg>