<?xml version="1.0" standalone="no"?><!DOCTYPE svg PUBLIC "-//W3C//DTD SVG 1.1//EN" "http://www.w3.org/Graphics/SVG/1.1/DTD/svg11.dtd"><svg width="200" height="200" viewBox="0 0 200 200" version="1.1" xmlns="http://www.w3.org/2000/svg" xmlns:xlink="http://www.w3.org/1999/xlink"><defs><style type="text/css"><![CDATA[
@font-face { font-family: ifont; src: url("//at.alicdn.com/t/font_1442373896_4754455.eot?#iefix") format("embedded-opentype"), url("//at.alicdn.com/t/font_1442373896_4754455.woff") format("woff"), url("//at.alicdn.com/t/font_1442373896_4754455.ttf") format("truetype"), url("//at.alicdn.com/t/font_1442373896_4754455.svg#ifont") format("svg"); }

]]></style></defs><g class="transform-group"><g transform="scale(0.1953125, 0.1953125)"><path d="M511.999998 412.42412c0 51.746548-42.963511 93.703125-95.996354 93.703125s-95.996354-41.956577-95.996354-93.703125 42.963511-93.646843 95.996354-93.646843S511.999998 360.677573 511.999998 412.42412M764.464987 365.321336c60.136635 37.425378 111.100354 87.60422 149.420101 146.679687-38.319747 59.074444-89.282443 109.25431-149.476383 146.679687-75.576279 47.103808-162.846902 71.940472-252.408707 71.940472s-176.831404-24.838711-252.464989-71.940472c-60.136635-37.425378-111.100354-87.60422-149.420101-146.679687 38.319747-59.074444 89.282443-109.25431 149.420101-146.679687 3.916193-2.462075 7.887644-4.810562 11.859096-7.160073-9.957793 26.683732-15.383362 55.493895-15.383362 85.534072 0 138.00819 114.623597 249.836115 255.989255 249.836115s255.989255-111.827925 255.989255-249.836115c0-30.040177-5.426593-58.850339-15.439644-85.534072C756.576319 360.510774 760.493535 362.860285 764.464987 365.321336M511.999998 199.677738c-223.319182 0-416.877549 126.931924-511.978511 312.322262 95.099938 185.390337 288.659329 312.322262 511.978511 312.322262s416.877549-126.931924 511.978511-312.322262C928.876524 326.609663 735.31918 199.677738 511.999998 199.677738" fill="#33475f"></path></g></g></svg>