<?xml version="1.0" standalone="no"?><!DOCTYPE svg PUBLIC "-//W3C//DTD SVG 1.1//EN" "http://www.w3.org/Graphics/SVG/1.1/DTD/svg11.dtd"><svg width="200" height="200" viewBox="0 0 200 200" version="1.1" xmlns="http://www.w3.org/2000/svg" xmlns:xlink="http://www.w3.org/1999/xlink"><defs><style type="text/css"><![CDATA[
@font-face { font-family: ifont; src: url("//at.alicdn.com/t/font_1442373896_4754455.eot?#iefix") format("embedded-opentype"), url("//at.alicdn.com/t/font_1442373896_4754455.woff") format("woff"), url("//at.alicdn.com/t/font_1442373896_4754455.ttf") format("truetype"), url("//at.alicdn.com/t/font_1442373896_4754455.svg#ifont") format("svg"); }

]]></style></defs><g class="transform-group"><g transform="scale(0.1953125, 0.1953125)"><path d="M991.872 842.538667c0 29.568-16.384 67.541333-65.578667 67.541333-28.501333 0-89.557333 0-136.277333 0-16.981333-87.381333-120.96-152.021333-182.229333-182.997333 31.744-12.928 56.234667-19.669333 56.234667-19.669333l0-33.792c-13.610667-7.253333-25.386667-17.408-36.053333-28.458667 19.370667-28.672 38.4-69.546667 49.706667-127.146667 0 0 45.098667-40.96 45.098667-90.154667 0-49.194667-45.098667-43.690667-45.098667-43.690667s1.578667-92.544-42.538667-167.424C672.384 226.986667 708.266667 234.538667 729.6 234.538667c180.309333 0 163.925333 202.666667 163.925333 202.666667s32.768-4.224 32.768 33.792c0 37.973333-32.768 67.541333-32.768 67.541333-22.528 118.229333-98.346667 135.125333-98.346667 135.125333l0 33.792C866.858667 707.456 991.872 812.970667 991.872 842.538667zM598.442667 516.693333c-30.037333 153.002667-131.114667 174.848-131.114667 174.848l0 43.690667c95.616 0 262.272 136.618667 262.272 174.848 0 38.229333-21.845333 87.424-87.424 87.424-65.578667 0-262.272 0-262.272 0s-183.04 0-262.272 0c-79.232 0-87.424-87.424-87.424-87.424 27.349333-112 262.272-174.848 262.272-174.848l0-43.690667c-90.154667-46.421333-131.114667-174.848-131.114667-174.848s-41.002667-35.584-43.690667-87.424C114.858667 377.344 161.322667 385.536 161.322667 385.536L161.322667 298.112C68.437333 262.613333 73.898667 210.688 73.898667 210.688c32.768 10.922667 87.424 0 87.424 0C95.744 156.074667 73.898667 35.84 73.898667 35.84c27.306667 21.845333 232.234667 87.424 306.005333 87.424 240.426667 0 218.538667 262.272 218.538667 262.272s43.733333-5.461333 43.733333 43.733333C642.176 478.421333 598.442667 516.693333 598.442667 516.693333z" fill="#272636"></path></g></g></svg>