<?xml version="1.0" standalone="no"?><!DOCTYPE svg PUBLIC "-//W3C//DTD SVG 1.1//EN" "http://www.w3.org/Graphics/SVG/1.1/DTD/svg11.dtd"><svg width="200" height="200" viewBox="0 0 200 200" version="1.1" xmlns="http://www.w3.org/2000/svg" xmlns:xlink="http://www.w3.org/1999/xlink"><defs><style type="text/css"><![CDATA[
@font-face { font-family: ifont; src: url("//at.alicdn.com/t/font_1442373896_4754455.eot?#iefix") format("embedded-opentype"), url("//at.alicdn.com/t/font_1442373896_4754455.woff") format("woff"), url("//at.alicdn.com/t/font_1442373896_4754455.ttf") format("truetype"), url("//at.alicdn.com/t/font_1442373896_4754455.svg#ifont") format("svg"); }

]]></style></defs><g class="transform-group"><g transform="scale(0.1953125, 0.1953125)"><path d="M731 37.4c-22.8-0.4-42.2 14.8-49.6 40.2l0 0c-48.8-15.2-115-8.2-136.6 39.8-31.4-41.8-95.8-28-110.4 19.6-14.6 47.6 27 99 89.4 97.2-6.2 68 88.6 109.4 163.6 78.2-1 38.6 16.6 83.8 60.8 90-12.8 36.2 6.2 84 57.2 84 63 0 76-72.6 42-106.2 19-20.8 25.6-50.4 22.2-78.2 34.6 24.2 69.2-13 67.6-40.2-3-50-40.8-72-67.6-48.6-17.6-55.2-74.4-64-105.2-32.8 2.8-14.8 0.4-26.2-10.6-38.6 45.2-11.4 37.8-75.4 9.4-93.8C752.2 41 741.2 37.6 731 37.4L731 37.4zM867.6 47.8c-45.4 0-45.8 69.4 0 69.4S913 47.8 867.6 47.8zM355.4 149.6c-45.4 0-45.8 69.4 0 69.4S400.8 149.6 355.4 149.6zM484.8 268.4c-3.4 0.2-7.6 1.8-11.8 5.8-9.6 9.2-16.2 27.6-3.6 48.4 2.8 4.6 5.6 9 8.8 13.4l-28.4 52.8L380.8 508 73.6 683.4l0 0c-22 12.8-33 29.6-35 48-2 18.6 5 40.4 26.2 63 90.6 96.2 202.4 155.4 329.8 190.2 31.2 8.6 53 5.2 66.4-4.2 13.4-9.4 22-26.8 22-56.8l0 0 0.4-355.2 76-131.6c-28-7.8-52.4-21.2-72.6-37.8l18-33.4c27.2 24.4 63.6 41.2 110.2 41.2 23 0 36.8-15 40-27 1.6-6 0.8-10.4-1.2-13.4-2-3-6-6.4-17.6-7.4-62-5-107.6-31.6-136.6-79.4-5.6-9.2-10-10.8-13.6-11.2C485.6 268.4 485.2 268.4 484.8 268.4L484.8 268.4zM952.8 347c-45.4 0-45.8 69.4 0 69.4S998.2 347 952.8 347zM863.6 519c-70.6 0-71.2 107.6 0 107.6S934 519 863.6 519L863.6 519zM393 535.8l18.8 32.4L138.8 726.2l0 0c-8 4.6-9.6 7.8-10 10.2-0.6 2.4-0.2 6.8 3.8 14 1 2 2.4 4 4 6.2l-0.8-0.4c36.2 54.2 108.4 124 178.6 161.8-47.2-21-101.8-50.2-145.4-81.6-30.6-21.8-55.8-43.8-69.2-68.2-6.8-12.2-10.6-26.2-7.4-40.6 3.4-14.2 13.8-26 27.8-34.2L393 535.8 393 535.8zM216.8 713.6c37 12.8 105.8 50.6 160.4 92 27.2 20.8 50.6 41.8 64.2 64 6 10 10.6 20.6 10.4 32.4l-41.2-19c-19-23.2-47.6-45.6-71.6-59-48.8-34.6-108.8-66.2-134.4-75L216.8 713.6 216.8 713.6z" fill="#272636"></path></g></g></svg>