<?xml version="1.0" standalone="no"?><!DOCTYPE svg PUBLIC "-//W3C//DTD SVG 1.1//EN" "http://www.w3.org/Graphics/SVG/1.1/DTD/svg11.dtd"><svg width="200" height="200" viewBox="0 0 200 200" version="1.1" xmlns="http://www.w3.org/2000/svg" xmlns:xlink="http://www.w3.org/1999/xlink"><defs><style type="text/css"><![CDATA[
@font-face { font-family: ifont; src: url("//at.alicdn.com/t/font_1442373896_4754455.eot?#iefix") format("embedded-opentype"), url("//at.alicdn.com/t/font_1442373896_4754455.woff") format("woff"), url("//at.alicdn.com/t/font_1442373896_4754455.ttf") format("truetype"), url("//at.alicdn.com/t/font_1442373896_4754455.svg#ifont") format("svg"); }

]]></style></defs><g class="transform-group"><g transform="scale(0.1953125, 0.1953125)"><path d="M960.900332 567.451971l-50.163375 0c-21.662853 188.249842-170.93869 337.401833-359.156312 359.08281l0 50.237883c0 26.084029-21.145321 47.227336-47.22935 47.227336-26.084029 0-47.228343-21.143307-47.228343-47.227336l0-50.237883c-188.219636-21.680977-337.495473-170.832968-359.157319-359.08281L47.803267 567.451971c-26.084029 0-47.22935-21.143307-47.22935-47.227336 0-26.086042 21.145321-47.227336 47.22935-47.227336l50.234863 0c21.683998-188.22165 170.833975-337.498493 359.085831-359.156312L457.12396 63.675598c0-26.084029 21.144314-47.230356 47.228343-47.230356 26.084029 0 47.22935 21.147335 47.22935 47.230356l0 50.231842c188.216615 21.685004 337.492452 170.834982 359.156312 359.087845l50.163375 0c26.085035 0 47.230356 21.141293 47.230356 47.227336C1008.129682 546.307656 986.985368 567.451971 960.900332 567.451971zM724.754592 472.996292l90.537939 0C794.780532 337.006133 687.508379 229.717869 551.581653 209.194795l0 90.62453c0 26.084029-21.145321 47.230356-47.22935 47.230356-26.084029 0-47.228343-21.146328-47.228343-47.230356l0-90.537939c-135.988146 20.513005-243.273388 127.787172-263.80049 263.715913l90.62453 0c26.085035 0 47.230356 21.141293 47.230356 47.227336 0 26.084029-21.145321 47.227336-47.230356 47.227336l-90.536932 0c20.511998 135.989153 127.786166 243.272382 263.712892 263.796462l0-90.62151c0-26.086042 21.144314-47.230356 47.228343-47.230356 26.084029 0 47.22935 21.143307 47.22935 47.230356l0 90.62151c135.926726-20.523074 243.199887-127.80731 263.710878-263.796462l-90.537939 0c-26.085035 0-47.228343-21.143307-47.228343-47.227336C677.526249 494.137586 698.669556 472.996292 724.754592 472.996292zM504.352303 567.451971c-26.084029 0-47.228343-21.143307-47.228343-47.227336 0-26.086042 21.144314-47.227336 47.228343-47.227336 26.084029 0 47.22935 21.141293 47.22935 47.227336C551.581653 546.307656 530.436332 567.451971 504.352303 567.451971z" fill="#272636"></path></g></g></svg>